<svg width="44" height="39" viewBox="0 0 44 39" fill="none" xmlns="http://www.w3.org/2000/svg">
<path d="M27.2218 39L7.2218 19L0 26.2218V34C0 36.7614 2.23858 39 5 39H27.2218Z" fill="#AEB5B9" fill-opacity="0.5"/>
<path d="M34.2218 9L44 18.7782V34C44 36.7614 41.7614 39 39 39H27.2218L15.7218 27.5L34.2218 9Z" fill="#AEB5B9" fill-opacity="0.3"/>
<path d="M9 8C11.2091 8 13 6.20914 13 4C13 1.79086 11.2091 0 9 0C6.79086 0 5 1.79086 5 4C5 6.20914 6.79086 8 9 8Z" fill="white" fill-opacity="0.3"/>
<path d="M14.0492 18.7003C13.9314 17.6417 14.0296 16.6198 14.2966 15.6753C15.1841 12.5362 17.9684 10.2278 21.2711 10.1871V8.13509C21.2711 8.02109 21.4086 7.96002 21.4989 8.02923L25.5713 11.1316C25.638 11.1845 25.638 11.2904 25.5713 11.3392L21.5028 14.4416C21.4086 14.5108 21.275 14.4498 21.275 14.3358V12.2879C19.1034 12.3245 17.2498 13.7129 16.4526 15.6753C16.1502 16.4162 15.997 17.2346 16.0402 18.0936C16.0991 19.2743 16.5272 20.3614 17.2027 21.2408C17.5639 21.709 17.4775 22.393 17.0102 22.7472C16.5665 23.0851 15.946 22.9915 15.6043 22.5436C14.7679 21.4607 14.2102 20.1415 14.0492 18.7003ZM25.8069 14.7592C26.4863 15.6345 26.9144 16.7257 26.9693 17.9064C27.0125 18.7695 26.8554 19.5878 26.557 20.3247C25.7598 22.2871 23.9062 23.6796 21.7345 23.7121V21.6642C21.7345 21.5502 21.5971 21.4892 21.5067 21.5584L17.4344 24.6607C17.3676 24.7137 17.3676 24.8195 17.4344 24.8684L21.5028 27.9708C21.5971 28.04 21.7306 27.9789 21.7306 27.8649V25.8129C25.0333 25.7763 27.8215 23.4678 28.7051 20.3247C28.9721 19.3802 29.0664 18.3583 28.9525 17.2997C28.7954 15.8585 28.2378 14.5393 27.4013 13.4564C27.0557 13.0085 26.4392 12.9149 25.9954 13.2528C25.532 13.607 25.4456 14.291 25.8069 14.7592Z" fill="white"/>
</svg>
