<?xml version="1.0" encoding="UTF-8"?>
<svg width="42px" height="22px" viewBox="0 0 42 22" version="1.1" xmlns="http://www.w3.org/2000/svg" xmlns:xlink="http://www.w3.org/1999/xlink">
    <!-- Generator: Sketch 60 (88103) - https://sketch.com -->
    <title>Combined Shape</title>
    <desc>Created with Sketch.</desc>
    <g id="Page-1" stroke="none" stroke-width="1" fill="none" fill-rule="evenodd">
        <path d="M19.042,9 L24,22 L21.216,22 L20.146,19 L15.271,19 L14.194,22 L11.497,22 L16.438,9 L19.042,9 Z M17.722,12.028 L16.01,16.931 L19.427,16.931 L17.722,12.028 Z M32.8439104,8.78863836 C32.9606422,8.67105712 33.1505905,8.67036855 33.2681717,8.78710041 L33.2681717,8.78710041 L36.841,12.335 L40.415058,8.78710069 C40.5158419,8.68704458 40.6697936,8.67325665 40.7852335,8.7454046 L40.7852335,8.7454046 L40.8393196,8.78863836 L41.8961296,9.85313836 C42.0128614,9.97071953 42.0121729,10.1606677 41.8945918,10.2773995 L41.8945918,10.2773995 L37.0529818,15.0840395 C36.936003,15.2001734 36.7472374,15.2001735 36.6302584,15.0840397 L36.6302584,15.0840397 L31.7886384,10.2773997 C31.6710571,10.1606679 31.6703685,9.97071962 31.7871004,9.85313836 L31.7871004,9.85313836 Z M4.229,0 L6.376,0.645 C6.286,0.945 6.194,1.263 6.088,1.794 L6.088,1.794 L8.249,1.794 L8.249,3.877 L5.793,3.877 C5.747,4.383 5.714,4.909 5.695,5.446 C6.495,5.365 7.285,5.378 8.027,5.487 C8.145,5.02 8.211,4.672 8.247,4.487 L8.247,4.487 L10.446,4.915 C10.376,5.275 10.301,5.641 10.175,6.127 L10.175,6.127 L10.3888604,6.23571116 C12.5604821,7.39416763 13.5398723,9.62786268 12.7790762,11.7181979 L12.7,11.92 C11.748,14.187 9.319,15.124 6.85,15.086 L6.85,15.086 L6.85,12.844 C9.074,12.89 10.239,11.993 10.635,11.052 C11.062,10.034 10.588,8.935 9.454,8.281 C8.357,10.884 6.486,13 3.684,13.255 C1.427,13.46 0,11.87 0,10.061 C0,8.529 1.024,6.84 3.437,5.954 C3.447,5.248 3.482,4.55 3.54,3.877 L3.54,3.877 L1.356,3.877 L1.356,1.794 L3.807,1.794 C3.939,1.042 4.071,0.526 4.229,0 L4.229,0 Z M3.495,8.382 C1.736,9.375 1.816,11.343 3.812,10.978 C3.664,10.2 3.557,9.329 3.495,8.382 Z M7.283,7.658 C6.776,7.617 6.237,7.63 5.704,7.7 C5.737,8.455 5.798,9.162 5.888,9.807 C6.474,9.201 6.934,8.432 7.283,7.658 Z" id="Combined-Shape" fill="#000000" fill-rule="nonzero"></path>
    </g>
</svg>